# xmcd
#
# Track frame offsets:
#	150
#	9034
#	20286
#	33773
#	44234
#	56794
#	68999
#	83077
#	93859
#	105797
#	117400
#	131978
#	143007
#	155838
#	164034
#	175461
#	190711
#	201171
#	212667
#	225681
#	236706
#	247015
#	261292
#	275458
#	285139
#	299880
#
# Disc length: 4168 seconds
#
# Revision: 1
# Processed by: cddbd v1.5PL3 Copyright (c) Steve Scherf et al.
# Submitted via: EasyCDDAExtractor 5.0.7
#
DISCID=8010461a
DTITLE=Various Artist - Dazzling Group Sounds Vol 6
DYEAR=1900
DGENRE=R&B
TTITLE0=Various Artist - Limeliters - Sister Sooky Comes Home
TTITLE1=Hi-Lites - You Did That To Me
TTITLE2=Serenaders - I'm Gonna Love You
TTITLE3=Glens - Cherish My Love
TTITLE4=Calvanes - Florabelle
TTITLE5=Keys (Angie Kay and the) - That 'Oo' Feeling
TTITLE6=Sonny Martin and Group - When True Love Comes Along
TTITLE7=Wailers - Hot Love
TTITLE8=Al Kent and Group - Hold Me
TTITLE9=Sensational Dellos (Donel Austin and the) - So Shy
TTITLE10=Four Fellows (Bette McLaurin and the) - I'm Past Sixteen
TTITLE11=Carribeans - Keep Her By My Side
TTITLE12=Hollywood Producers - You're Not Welcome
TTITLE13=Dots (Jeanette Baker and the) - Heartsick And Lonely
TTITLE14=Tangerines - The Answer Is Always You
TTITLE15=Toreadors - Do You Remember
TTITLE16=Cecil Price and Group - This Is The Last Time
TTITLE17=Fairlanes (Charles Perrywell and His) - Your Lonesome Now
TTITLE18=Valiants - Wedding Bells
TTITLE19=V-Eights - Pretty Girl
TTITLE20=Valadiers - Take A Chance
TTITLE21=Skylarks - Glory Of Love
TTITLE22=Inkspots (Ella Fitzgerald and the) - Little Small Town Girl
TTITLE23=James Quintet - Drop A Penny In The Wishing Well
TTITLE24=Maples - I Must Forget You
TTITLE25=Cosmic Rays - Bye Bye
EXTD=
EXTT0=
EXTT1=
EXTT2=
EXTT3=
EXTT4=
EXTT5=
EXTT6=
EXTT7=
EXTT8=
EXTT9=
EXTT10=
EXTT11=
EXTT12=
EXTT13=
EXTT14=
EXTT15=
EXTT16=
EXTT17=
EXTT18=
EXTT19=
EXTT20=
EXTT21=
EXTT22=
EXTT23=
EXTT24=
EXTT25=
PLAYORDER=
